<svg width="37" height="37" viewBox="0 0 37 37" fill="none" xmlns="http://www.w3.org/2000/svg">
<g clip-path="url(#clip0_3_4)">
<circle cx="18.0815" cy="18" r="29.049" transform="rotate(-45 18.0815 18)" fill="url(#paint0_linear_3_4)"/>
<g clip-path="url(#clip1_3_4)">
<path d="M8.19998 8.01599H20.824V10.68H8.19998V8.01599ZM7.76798 15.864H21.136V18.528H7.76798V15.864ZM16 8.73599H18.808V29.136H16V8.73599ZM10.552 8.73599H13.24V16.8C13.24 18.288 13.16 19.784 13 21.288C12.856 22.776 12.52 24.208 11.992 25.584C11.48 26.944 10.68 28.192 9.59198 29.328C9.44798 29.136 9.24798 28.912 8.99198 28.656C8.75198 28.4 8.49598 28.152 8.22398 27.912C7.95198 27.688 7.70398 27.504 7.47998 27.36C8.40798 26.384 9.07998 25.32 9.49598 24.168C9.92798 23.016 10.208 21.816 10.336 20.568C10.48 19.304 10.552 18.048 10.552 16.8V8.73599ZM26.728 6.95999L29.464 8.06399C28.856 8.84799 28.176 9.60799 27.424 10.344C26.672 11.064 25.88 11.736 25.048 12.36C24.232 12.968 23.408 13.512 22.576 13.992C22.336 13.672 22.024 13.32 21.64 12.936C21.272 12.552 20.904 12.224 20.536 11.952C21.288 11.584 22.048 11.136 22.816 10.608C23.6 10.064 24.336 9.47999 25.024 8.85599C25.728 8.23199 26.296 7.59999 26.728 6.95999ZM27.232 13.56L29.872 14.664C29.264 15.48 28.568 16.272 27.784 17.04C27.016 17.808 26.216 18.52 25.384 19.176C24.552 19.832 23.72 20.416 22.888 20.928C22.648 20.624 22.336 20.28 21.952 19.896C21.584 19.512 21.224 19.184 20.872 18.912C21.624 18.496 22.4 18.008 23.2 17.448C24 16.872 24.752 16.256 25.456 15.6C26.176 14.928 26.768 14.248 27.232 13.56ZM27.64 19.968L30.376 21.024C29.704 22.192 28.912 23.272 28 24.264C27.088 25.256 26.096 26.16 25.024 26.976C23.952 27.776 22.824 28.48 21.64 29.088C21.416 28.72 21.112 28.312 20.728 27.864C20.36 27.432 19.992 27.064 19.624 26.76C20.696 26.296 21.736 25.72 22.744 25.032C23.768 24.344 24.704 23.576 25.552 22.728C26.4 21.864 27.096 20.944 27.64 19.968Z" fill="white"/>
</g>
</g>
<defs>
<linearGradient id="paint0_linear_3_4" x1="18.0815" y1="-11.049" x2="18.0815" y2="47.049" gradientUnits="userSpaceOnUse">
<stop stop-color="#FF3D27"/>
<stop offset="1" stop-color="#680000"/>
</linearGradient>
<clipPath id="clip0_3_4">
<rect width="37" height="37" fill="white"/>
</clipPath>
<clipPath id="clip1_3_4">
<rect width="24" height="24" fill="white" transform="translate(7 6)"/>
</clipPath>
</defs>
</svg>
